<svg width="50" height="46" viewBox="0 0 50 46" fill="none" xmlns="http://www.w3.org/2000/svg">
<g filter="url(#filter0_d_11_8)">
<path d="M45.4762 36.7641C42.0416 31.1195 36.5363 27.2655 30.1578 25.876C33.1887 24.6955 35.6945 22.5512 37.2469 19.8093C38.7993 17.0675 39.302 13.8983 38.6692 10.8431C38.0364 7.78801 36.3073 5.03657 33.7773 3.05889C31.2473 1.0812 28.0735 0 24.798 0C21.5225 0 18.3487 1.0812 15.8187 3.05889C13.2887 5.03657 11.5596 7.78801 10.9268 10.8431C10.294 13.8983 10.7967 17.0675 12.3491 19.8093C13.9015 22.5512 16.4072 24.6955 19.4382 25.876C13.068 27.2595 7.55433 31.1195 4.11974 36.7641C4.02031 36.9448 3.99817 37.155 4.05793 37.3509C4.11769 37.5467 4.25474 37.713 4.44044 37.815C4.62614 37.9171 4.84614 37.947 5.05447 37.8984C5.26281 37.8499 5.44337 37.7268 5.55844 37.5547C9.6209 30.8724 16.8186 26.882 24.798 26.882C32.7774 26.882 39.9751 30.8724 44.0375 37.5547C44.1104 37.6748 44.2153 37.7745 44.3415 37.8439C44.4678 37.9132 44.611 37.9498 44.7569 37.95C44.903 37.9504 45.0466 37.9136 45.1727 37.8433C45.3633 37.7383 45.5023 37.5657 45.5593 37.3634C45.6162 37.1611 45.5863 36.9455 45.4762 36.7641ZM12.3237 13.4424C12.3237 11.097 13.0553 8.80425 14.426 6.85412C15.7967 4.904 17.7449 3.38406 20.0243 2.48652C22.3037 1.58898 24.8118 1.35414 27.2316 1.8117C29.6514 2.26927 31.8741 3.39868 33.6186 5.05713C35.3632 6.71557 36.5513 8.82856 37.0326 11.1289C37.5139 13.4292 37.2669 15.8136 36.3227 17.9804C35.3786 20.1473 33.7797 21.9993 31.7283 23.3024C29.6769 24.6054 27.2652 25.3009 24.798 25.3009C21.4908 25.2972 18.3201 24.0467 15.9816 21.8236C13.643 19.6005 12.3275 16.5863 12.3237 13.4424Z" fill="#48392A"/>
</g>
<defs>
<filter id="filter0_d_11_8" x="0" y="0" width="49.6126" height="46" filterUnits="userSpaceOnUse" color-interpolation-filters="sRGB">
<feFlood flood-opacity="0" result="BackgroundImageFix"/>
<feColorMatrix in="SourceAlpha" type="matrix" values="0 0 0 0 0 0 0 0 0 0 0 0 0 0 0 0 0 0 127 0" result="hardAlpha"/>
<feOffset dy="4"/>
<feGaussianBlur stdDeviation="2"/>
<feComposite in2="hardAlpha" operator="out"/>
<feColorMatrix type="matrix" values="0 0 0 0 0 0 0 0 0 0 0 0 0 0 0 0 0 0 0.25 0"/>
<feBlend mode="normal" in2="BackgroundImageFix" result="effect1_dropShadow_11_8"/>
<feBlend mode="normal" in="SourceGraphic" in2="effect1_dropShadow_11_8" result="shape"/>
</filter>
</defs>
</svg>
