<svg width="39" height="39" viewBox="0 0 39 39" fill="none" xmlns="http://www.w3.org/2000/svg">
<path fill-rule="evenodd" clip-rule="evenodd" d="M19.5 0C8.73015 0 0 8.73015 0 19.5C0 30.2698 8.73015 39 19.5 39C30.2698 39 39 30.2698 39 19.5C39 8.73015 30.2698 0 19.5 0ZM12.675 14.625C12.675 13.7287 12.8515 12.8412 13.1945 12.0132C13.5375 11.1851 14.0402 10.4328 14.674 9.799C15.3078 9.16524 16.0601 8.66251 16.8882 8.31952C17.7162 7.97653 18.6037 7.8 19.5 7.8C20.3963 7.8 21.2838 7.97653 22.1118 8.31952C22.9399 8.66251 23.6922 9.16524 24.326 9.799C24.9598 10.4328 25.4625 11.1851 25.8055 12.0132C26.1485 12.8412 26.325 13.7287 26.325 14.625C26.325 16.4351 25.6059 18.1711 24.326 19.451C23.0461 20.7309 21.3101 21.45 19.5 21.45C17.6899 21.45 15.9539 20.7309 14.674 19.451C13.3941 18.1711 12.675 16.4351 12.675 14.625ZM31.7031 29.2188C30.2434 31.055 28.3877 32.5376 26.2746 33.556C24.1615 34.5744 21.8457 35.1022 19.5 35.1C17.1543 35.1022 14.8385 34.5744 12.7254 33.556C10.6123 32.5376 8.7566 31.055 7.2969 29.2188C10.4579 26.9509 14.7713 25.35 19.5 25.35C24.2288 25.35 28.5421 26.9509 31.7031 29.2188Z" fill="black" fill-opacity="0.85"/>
</svg>
