<svg width="27" height="27" viewBox="0 0 27 27" fill="none" xmlns="http://www.w3.org/2000/svg">
<path d="M26.5381 13.3469L13.6486 0.455586C13.5043 0.310744 13.3328 0.195912 13.1439 0.117719C12.955 0.039525 12.7525 -0.0004828 12.5481 4.39662e-06H0.519112C0.381436 4.39662e-06 0.249399 0.0547039 0.152047 0.152069C0.054696 0.249435 4.39598e-06 0.381491 4.39598e-06 0.519186V12.5499C-0.000482731 12.7544 0.0395193 12.9569 0.117702 13.1458C0.195884 13.3347 0.310699 13.5063 0.455521 13.6506L13.345 26.5419C13.4896 26.6871 13.6616 26.8023 13.8508 26.8809C14.0401 26.9595 14.2431 27 14.4481 27C14.653 27 14.856 26.9595 15.0453 26.8809C15.2346 26.8023 15.4065 26.6871 15.5512 26.5419L26.542 15.5495C26.6871 15.4048 26.8023 15.2329 26.8809 15.0435C26.9595 14.8542 27 14.6512 27 14.4462C27 14.2413 26.9595 14.0383 26.8809 13.849C26.8023 13.6596 26.6871 13.4877 26.542 13.343L26.5381 13.3469ZM25.8035 14.8149L14.8127 25.8072C14.7154 25.9043 14.5836 25.9589 14.4461 25.9589C14.3087 25.9589 14.1768 25.9043 14.0795 25.8072L1.19006 12.916C1.09305 12.8188 1.03845 12.6872 1.03822 12.5499V1.03837H12.5481C12.6854 1.0386 12.817 1.09321 12.9141 1.19023L25.8035 14.0815C25.9006 14.1789 25.9551 14.3107 25.9551 14.4482C25.9551 14.5857 25.9006 14.7175 25.8035 14.8149ZM7.26751 6.23019C7.26751 6.43556 7.20662 6.63632 7.09254 6.80707C6.97845 6.97783 6.81631 7.11092 6.6266 7.18951C6.43689 7.2681 6.22814 7.28867 6.02675 7.2486C5.82535 7.20854 5.64036 7.10964 5.49516 6.96442C5.34997 6.81921 5.25109 6.63419 5.21103 6.43276C5.17097 6.23134 5.19153 6.02256 5.27011 5.83282C5.34869 5.64309 5.48176 5.48092 5.65249 5.36682C5.82322 5.25272 6.02395 5.19183 6.22929 5.19183C6.50464 5.19183 6.76872 5.30122 6.96342 5.49596C7.15812 5.69069 7.26751 5.9548 7.26751 6.23019Z" fill="black"/>
</svg>
