<svg width="36" height="32" viewBox="0 0 36 32" fill="none" xmlns="http://www.w3.org/2000/svg">
<path d="M31.7985 3.85489L31.7977 3.85408C30.8898 2.96415 29.8195 2.25694 28.6448 1.7709L28.6434 1.77034C27.4249 1.26413 26.118 1.00505 24.7985 1.00812L24.7962 1.00813C22.9421 1.00812 21.1351 1.51572 19.5656 2.47318L19.5656 2.4732C19.1901 2.70226 18.8341 2.95339 18.4972 3.2266L17.8622 3.74169L17.2271 3.2266C16.8903 2.95339 16.5343 2.70226 16.1588 2.4732L16.1588 2.47318C14.5893 1.51572 12.7822 1.00812 10.9282 1.00812C9.5913 1.00812 8.3005 1.26375 7.08089 1.77036L7.0798 1.77081C5.90075 2.25896 4.83912 2.9604 3.92636 3.85438L3.92497 3.85575L3.92497 3.85575C3.01874 4.7399 2.29483 5.79331 1.79429 6.95626L31.7985 3.85489ZM31.7985 3.85489C32.7038 4.74032 33.4279 5.79377 33.9301 6.95626C34.4508 8.16627 34.7159 9.448 34.7121 10.7682V10.7711C34.7121 12.0099 34.4592 13.3228 33.9393 14.6822L33.9384 14.6845C33.5076 15.8193 32.8725 17.0166 32.0504 18.2439C30.7491 20.1838 28.9415 22.2333 26.6676 24.3325C22.8896 27.8177 19.1506 30.2245 19.0093 30.3151L19.0091 30.3152L18.0311 30.9424C18.0308 30.9426 18.0306 30.9427 18.0303 30.9429C17.9272 31.0082 17.793 31.0082 17.6899 30.9429C17.6897 30.9427 17.6894 30.9426 17.6891 30.9424L16.7112 30.3152L16.7033 30.3101L16.6955 30.3054C16.6955 30.3054 16.6955 30.3054 16.6955 30.3054C16.6952 30.3051 16.6912 30.3026 16.682 30.2968L16.641 30.2705C16.6061 30.2481 16.5577 30.2166 16.4966 30.1764C16.3743 30.0961 16.2022 29.9816 15.9874 29.8353C15.5576 29.5426 14.9578 29.1238 14.2439 28.5983C12.8147 27.5461 10.9363 26.0721 9.0527 24.3326L9.05259 24.3325M31.7985 3.85489L9.05259 24.3325M9.05259 24.3325C6.77877 22.2333 4.97112 20.1838 3.66985 18.2439C2.84902 17.0186 2.21697 15.8204 1.78094 14.6822C1.26105 13.3228 1.00809 12.0099 1.00809 10.7711C1.00809 9.44893 1.27357 8.16629 1.79427 6.95631L9.05259 24.3325Z" stroke="black" stroke-opacity="0.95" stroke-width="2"/>
</svg>
