<svg width="21" height="19" viewBox="0 0 21 19" fill="none" xmlns="http://www.w3.org/2000/svg">
<path d="M18.6185 2.59091H15.5289L13.997 0.192159C13.9593 0.133158 13.9082 0.0847612 13.8483 0.0512466C13.7884 0.017732 13.7216 0.000131322 13.6536 0H7.03367C6.96571 0.000131322 6.89883 0.017732 6.83894 0.0512466C6.77904 0.0847612 6.72798 0.133158 6.69026 0.192159L5.1563 2.59091H2.06873C1.52007 2.59091 0.993878 2.81839 0.605916 3.22329C0.217955 3.6282 0 4.17738 0 4.75V16.8409C0 17.4135 0.217955 17.9627 0.605916 18.3676C0.993878 18.7725 1.52007 19 2.06873 19H18.6185C19.1672 19 19.6934 18.7725 20.0814 18.3676C20.4693 17.9627 20.6873 17.4135 20.6873 16.8409V4.75C20.6873 4.17738 20.4693 3.6282 20.0814 3.22329C19.6934 2.81839 19.1672 2.59091 18.6185 2.59091ZM19.8598 16.8409C19.8598 17.1845 19.729 17.514 19.4962 17.7569C19.2635 17.9999 18.9477 18.1364 18.6185 18.1364H2.06873C1.73953 18.1364 1.42382 17.9999 1.19104 17.7569C0.958264 17.514 0.827491 17.1845 0.827491 16.8409V4.75C0.827491 4.40643 0.958264 4.07692 1.19104 3.83398C1.42382 3.59103 1.73953 3.45455 2.06873 3.45455H5.37869C5.44683 3.45459 5.51392 3.43708 5.57401 3.40356C5.63409 3.37003 5.68532 3.32154 5.72313 3.26239L7.25399 0.863637H13.4312L14.9641 3.26239C15.002 3.32154 15.0532 3.37003 15.1133 3.40356C15.1734 3.43708 15.2404 3.45459 15.3086 3.45455H18.6185C18.9477 3.45455 19.2635 3.59103 19.4962 3.83398C19.729 4.07692 19.8598 4.40643 19.8598 4.75V16.8409ZM10.3436 6.04546C9.52533 6.04546 8.72539 6.29872 8.04499 6.7732C7.36459 7.24769 6.83428 7.9221 6.52113 8.71115C6.20797 9.50019 6.12604 10.3684 6.28568 11.2061C6.44533 12.0437 6.83938 12.8132 7.41801 13.4171C7.99665 14.021 8.73387 14.4322 9.53646 14.5989C10.339 14.7655 11.171 14.68 11.927 14.3531C12.683 14.0263 13.3292 13.4728 13.7838 12.7627C14.2384 12.0526 14.4811 11.2177 14.4811 10.3636C14.4811 9.21839 14.0452 8.12004 13.2693 7.31023C12.4933 6.50041 11.441 6.04546 10.3436 6.04546ZM10.3436 13.8182C9.68899 13.8182 9.04904 13.6156 8.50472 13.236C7.9604 12.8564 7.53615 12.3169 7.28563 11.6856C7.03511 11.0544 6.96956 10.3598 7.09727 9.68969C7.22499 9.01958 7.54023 8.40404 8.00314 7.92091C8.46605 7.43778 9.05582 7.10877 9.69789 6.97547C10.34 6.84218 11.0055 6.91059 11.6103 7.17206C12.2151 7.43352 12.7321 7.8763 13.0958 8.4444C13.4595 9.0125 13.6536 9.6804 13.6536 10.3636C13.6536 11.2798 13.3049 12.1585 12.6841 12.8064C12.0634 13.4542 11.2215 13.8182 10.3436 13.8182Z" fill="black"/>
</svg>
