<svg width="147" height="147" viewBox="0 0 147 147" fill="none" xmlns="http://www.w3.org/2000/svg">
<path fill-rule="evenodd" clip-rule="evenodd" d="M73.5 0C32.906 0 0 32.906 0 73.5C0 114.094 32.906 147 73.5 147C114.094 147 147 114.094 147 73.5C147 32.906 114.094 0 73.5 0ZM47.775 55.125C47.775 51.7467 48.4404 48.4016 49.7332 45.2805C51.026 42.1594 52.9209 39.3235 55.3097 36.9347C57.6985 34.5459 60.5344 32.651 63.6555 31.3582C66.7766 30.0654 70.1217 29.4 73.5 29.4C76.8783 29.4 80.2234 30.0654 83.3445 31.3582C86.4656 32.651 89.3015 34.5459 91.6903 36.9347C94.0791 39.3235 95.974 42.1594 97.2668 45.2805C98.5596 48.4016 99.225 51.7467 99.225 55.125C99.225 61.9477 96.5147 68.4909 91.6903 73.3153C86.8659 78.1397 80.3227 80.85 73.5 80.85C66.6773 80.85 60.1341 78.1397 55.3097 73.3153C50.4853 68.4909 47.775 61.9477 47.775 55.125ZM119.496 110.132C113.994 117.053 107 122.642 99.0351 126.48C91.0704 130.319 82.3414 132.308 73.5 132.3C64.6586 132.308 55.9296 130.319 47.9649 126.48C40.0002 122.642 33.0056 117.053 27.5037 110.132C39.418 101.584 55.6763 95.55 73.5 95.55C91.3237 95.55 107.582 101.584 119.496 110.132Z" fill="black" fill-opacity="0.85"/>
</svg>
