<svg width="41" height="41" viewBox="0 0 41 41" fill="none" xmlns="http://www.w3.org/2000/svg">
<path fill-rule="evenodd" clip-rule="evenodd" d="M20.5 0C9.17785 0 0 9.17785 0 20.5C0 31.8221 9.17785 41 20.5 41C31.8221 41 41 31.8221 41 20.5C41 9.17785 31.8221 0 20.5 0ZM13.325 15.375C13.325 14.4328 13.5106 13.4998 13.8712 12.6292C14.2317 11.7587 14.7602 10.9678 15.4265 10.3015C16.0928 9.63525 16.8837 9.10674 17.7542 8.74616C18.6248 8.38559 19.5578 8.2 20.5 8.2C21.4422 8.2 22.3752 8.38559 23.2458 8.74616C24.1163 9.10674 24.9072 9.63525 25.5735 10.3015C26.2397 10.9678 26.7683 11.7587 27.1288 12.6292C27.4894 13.4998 27.675 14.4328 27.675 15.375C27.675 17.2779 26.9191 19.1029 25.5735 20.4485C24.2279 21.7941 22.4029 22.55 20.5 22.55C18.5971 22.55 16.7721 21.7941 15.4265 20.4485C14.0809 19.1029 13.325 17.2779 13.325 15.375ZM33.3289 30.7172C31.7943 32.6475 29.8435 34.2062 27.622 35.2768C25.4006 36.3474 22.966 36.9023 20.5 36.9C18.034 36.9023 15.5994 36.3474 13.378 35.2768C11.1565 34.2062 9.20566 32.6475 7.6711 30.7172C10.9942 28.333 15.5287 26.65 20.5 26.65C25.4712 26.65 30.0058 28.333 33.3289 30.7172Z" fill="black" fill-opacity="0.85"/>
</svg>
