<svg width="37" height="32" viewBox="0 0 37 32" fill="none" xmlns="http://www.w3.org/2000/svg">
<path d="M33.2999 4.31772H27.774L25.0341 0.320231C24.9667 0.221905 24.8754 0.141253 24.7682 0.0854018C24.6611 0.0295501 24.5415 0.000218847 24.4199 0H12.58C12.4584 0.000218847 12.3388 0.0295501 12.2317 0.0854018C12.1246 0.141253 12.0332 0.221905 11.9658 0.320231L9.22223 4.31772H3.69999C2.71869 4.31772 1.77759 4.6968 1.0837 5.37158C0.389819 6.04635 0 6.96155 0 7.91582V28.0652C0 29.0195 0.389819 29.9346 1.0837 30.6094C1.77759 31.2842 2.71869 31.6633 3.69999 31.6633H33.2999C34.2812 31.6633 35.2223 31.2842 35.9162 30.6094C36.6101 29.9346 36.9999 29.0195 36.9999 28.0652V7.91582C36.9999 6.96155 36.6101 6.04635 35.9162 5.37158C35.2223 4.6968 34.2812 4.31772 33.2999 4.31772ZM35.5199 28.0652C35.5199 28.6377 35.286 29.1869 34.8697 29.5917C34.4534 29.9966 33.8887 30.224 33.2999 30.224H3.69999C3.11121 30.224 2.54655 29.9966 2.13022 29.5917C1.71389 29.1869 1.48 28.6377 1.48 28.0652V7.91582C1.48 7.34326 1.71389 6.79414 2.13022 6.38928C2.54655 5.98441 3.11121 5.75696 3.69999 5.75696H9.61998C9.74184 5.75704 9.86183 5.72785 9.9693 5.67198C10.0768 5.61612 10.1684 5.53531 10.236 5.43673L12.974 1.43924H24.0222L26.7639 5.43673C26.8315 5.53531 26.9231 5.61612 27.0306 5.67198C27.1381 5.72785 27.2581 5.75704 27.3799 5.75696H33.2999C33.8887 5.75696 34.4534 5.98441 34.8697 6.38928C35.286 6.79414 35.5199 7.34326 35.5199 7.91582V28.0652ZM18.5 10.0747C17.0364 10.0747 15.6057 10.4967 14.3887 11.2875C13.1718 12.0782 12.2234 13.2021 11.6633 14.517C11.1032 15.8319 10.9566 17.2789 11.2422 18.6748C11.5277 20.0707 12.2325 21.353 13.2674 22.3594C14.3023 23.3658 15.6208 24.0511 17.0563 24.3288C18.4917 24.6065 19.9796 24.464 21.3318 23.9193C22.684 23.3746 23.8397 22.4523 24.6528 21.2689C25.4659 20.0855 25.8999 18.6942 25.8999 17.2709C25.8999 15.3623 25.1203 13.5319 23.7325 12.1824C22.3448 10.8329 20.4626 10.0747 18.5 10.0747ZM18.5 23.0278C17.3291 23.0278 16.1845 22.6902 15.211 22.0576C14.2375 21.425 13.4787 20.5259 13.0306 19.474C12.5825 18.422 12.4653 17.2645 12.6937 16.1478C12.9221 15.031 13.486 14.0052 14.3139 13.2001C15.1418 12.395 16.1967 11.8467 17.345 11.6245C18.4934 11.4024 19.6837 11.5164 20.7654 11.9521C21.8472 12.3879 22.7717 13.1258 23.4222 14.0725C24.0727 15.0192 24.4199 16.1323 24.4199 17.2709C24.4199 18.7977 23.7962 20.262 22.686 21.3417C21.5758 22.4213 20.07 23.0278 18.5 23.0278Z" fill="black"/>
</svg>
