<svg width="33" height="28" viewBox="0 0 33 28" fill="none" xmlns="http://www.w3.org/2000/svg">
<path d="M29.5312 3.81819H24.6307L22.2009 0.283182C22.1411 0.196232 22.0601 0.124911 21.9651 0.0755213C21.8701 0.0261314 21.764 0.000193528 21.6562 0H11.1562C11.0484 0.000193528 10.9424 0.0261314 10.8474 0.0755213C10.7524 0.124911 10.6714 0.196232 10.6116 0.283182L8.17851 3.81819H3.28125C2.41101 3.81819 1.57641 4.15341 0.961055 4.75012C0.345702 5.34683 0 6.15614 0 7.00001V24.8182C0 25.6621 0.345702 26.4714 0.961055 27.0681C1.57641 27.6648 2.41101 28 3.28125 28H29.5312C30.4015 28 31.2361 27.6648 31.8514 27.0681C32.4668 26.4714 32.8125 25.6621 32.8125 24.8182V7.00001C32.8125 6.15614 32.4668 5.34683 31.8514 4.75012C31.2361 4.15341 30.4015 3.81819 29.5312 3.81819ZM31.5 24.8182C31.5 25.3245 31.2925 25.8101 30.9233 26.1682C30.5541 26.5262 30.0534 26.7273 29.5312 26.7273H3.28125C2.7591 26.7273 2.25834 26.5262 1.88913 26.1682C1.51992 25.8101 1.3125 25.3245 1.3125 24.8182V7.00001C1.3125 6.49369 1.51992 6.0081 1.88913 5.65008C2.25834 5.29205 2.7591 5.09092 3.28125 5.09092H8.53124C8.63931 5.09098 8.74573 5.06517 8.84103 5.01577C8.93634 4.96637 9.01759 4.89491 9.07757 4.80773L11.5057 1.27273H21.3035L23.7349 4.80773C23.7949 4.89491 23.8761 4.96637 23.9714 5.01577C24.0667 5.06517 24.1732 5.09098 24.2812 5.09092H29.5312C30.0534 5.09092 30.5541 5.29205 30.9233 5.65008C31.2925 6.0081 31.5 6.49369 31.5 7.00001V24.8182ZM16.4062 8.9091C15.1083 8.9091 13.8395 9.28233 12.7603 9.98157C11.6811 10.6808 10.84 11.6747 10.3433 12.8375C9.84658 14.0003 9.71662 15.2798 9.96984 16.5142C10.2231 17.7487 10.8481 18.8826 11.7659 19.7725C12.6836 20.6625 13.853 21.2686 15.126 21.5141C16.399 21.7597 17.7185 21.6336 18.9176 21.152C20.1167 20.6703 21.1417 19.8547 21.8628 18.8082C22.5838 17.7617 22.9687 16.5314 22.9687 15.2727C22.9687 13.585 22.2773 11.9664 21.0466 10.773C19.8159 9.57956 18.1467 8.9091 16.4062 8.9091ZM16.4062 20.3637C15.3679 20.3637 14.3529 20.0651 13.4895 19.5057C12.6261 18.9463 11.9532 18.1512 11.5559 17.221C11.1585 16.2907 11.0545 15.2671 11.2571 14.2796C11.4597 13.292 11.9597 12.3849 12.6939 11.6729C13.4282 10.961 14.3636 10.4761 15.382 10.2797C16.4004 10.0832 17.456 10.184 18.4153 10.5694C19.3746 10.9547 20.1946 11.6072 20.7714 12.4444C21.3483 13.2816 21.6562 14.2659 21.6562 15.2727C21.6562 16.6229 21.1031 17.9178 20.1185 18.8726C19.134 19.8273 17.7986 20.3637 16.4062 20.3637Z" fill="black"/>
</svg>
